<svg xmlns="http://www.w3.org/2000/svg" width="70" height="62.612" viewBox="0 0 70 62.612"><defs><style>.a{fill:#fff;}</style></defs><g transform="translate(0 -27.02)"><path class="a" d="M2.091,322.117H6.274a2.091,2.091,0,0,0,2.091-2.091V297.021H2.091A2.091,2.091,0,0,0,0,299.112v20.914A2.091,2.091,0,0,0,2.091,322.117Z" transform="translate(0 -233.601)"/><path class="a" d="M288.731,27.02a16.731,16.731,0,1,0,16.731,16.731A16.731,16.731,0,0,0,288.731,27.02Zm3.5,24.258a7.872,7.872,0,0,1-1.414.54V52.4a2.091,2.091,0,1,1-4.183,0v-.513a6.649,6.649,0,0,1-2.37-1.1,2.091,2.091,0,0,1,2.51-3.346,3.774,3.774,0,0,0,3.586.1c.459-.229.706-.505.706-.649,0-.25,0-.289-.278-.437a9.931,9.931,0,0,0-2.444-.643,12.55,12.55,0,0,1-3.65-1.066,4.451,4.451,0,0,1-2.492-4.128,4.937,4.937,0,0,1,3.015-4.39,7.867,7.867,0,0,1,1.417-.542v-.575a2.091,2.091,0,1,1,4.183,0v.512a6.651,6.651,0,0,1,2.37,1.1,2.091,2.091,0,1,1-2.51,3.346,3.778,3.778,0,0,0-3.59-.1c-.461.231-.7.5-.7.649,0,.25,0,.289.278.438a9.932,9.932,0,0,0,2.444.643,12.552,12.552,0,0,1,3.65,1.066,4.451,4.451,0,0,1,2.492,4.128A4.939,4.939,0,0,1,292.236,51.278Z" transform="translate(-235.468 0)"/><path class="a" d="M115.208,296.744h.46a38.79,38.79,0,0,0,19.7-5.675l11.67-8.156a4.177,4.177,0,1,0-4.768-6.86l-11.21,7.864A14.614,14.614,0,0,1,119.1,285.13l-12.9-4.267a2.078,2.078,0,0,1,1.213-3.973c.042,0,14.486,4.685,14.486,4.685a4.18,4.18,0,0,0,2.593-7.947l-19.673-6.441A18.559,18.559,0,0,0,90,268.582v23.412l16.41,3.718A41.118,41.118,0,0,0,115.208,296.744Z" transform="translate(-78.843 -207.112)"/></g></svg>