<svg xmlns="http://www.w3.org/2000/svg" width="38.352" height="39.297" viewBox="0 0 38.352 39.297"><defs><style>.a{fill:#0e4d6e;}.b,.c{fill:#115173;}.b{opacity:0.1;}</style></defs><g transform="translate(0 7.499)"><path class="a" d="M54.6,16.325V13.353a9.643,9.643,0,0,0-6.832-9.212V2.795a2.795,2.795,0,1,0-5.589,0V4.141a9.643,9.643,0,0,0-6.832,9.212v2.972A14.628,14.628,0,0,1,31.258,26.5a.932.932,0,0,0,.672,1.576h8.478a4.658,4.658,0,0,0,9.128,0h8.478a.932.932,0,0,0,.672-1.576A14.628,14.628,0,0,1,54.6,16.325ZM44.041,2.795a.932.932,0,0,1,1.863,0v.977c-.307-.03-.617-.045-.932-.045s-.625.016-.932.045Zm.932,27.14a2.8,2.8,0,0,1-2.634-1.863h5.269A2.8,2.8,0,0,1,44.973,29.935ZM33.938,26.208a16.471,16.471,0,0,0,3.271-9.883V13.353a7.763,7.763,0,1,1,15.526,0v2.972a16.471,16.471,0,0,0,3.271,9.883Z" transform="translate(-30.999)"/><path class="a" d="M393.312,61.661a.932.932,0,1,0,1.863,0,13.882,13.882,0,0,0-4.093-9.881.932.932,0,1,0-1.317,1.317A12.031,12.031,0,0,1,393.312,61.661Z" transform="translate(-367.228 -48.308)"/><path class="a" d="M31.932,62.593a.932.932,0,0,0,.932-.932A12.031,12.031,0,0,1,36.41,53.1a.932.932,0,0,0-1.317-1.317A13.882,13.882,0,0,0,31,61.661.932.932,0,0,0,31.932,62.593Z" transform="translate(-31 -48.309)"/></g><ellipse class="b" cx="6.749" cy="6.749" rx="6.749" ry="6.749" transform="translate(24.853)"/><ellipse class="c" cx="3.75" cy="3.75" rx="3.75" ry="3.75" transform="translate(27.853 3)"/></svg>