<?xml version="1.0" encoding="utf-8"?>
<!-- Generator: Adobe Illustrator 16.0.0, SVG Export Plug-In . SVG Version: 6.00 Build 0)  -->
<!DOCTYPE svg PUBLIC "-//W3C//DTD SVG 1.1//EN" "http://www.w3.org/Graphics/SVG/1.1/DTD/svg11.dtd">
<svg version="1.1" id="Layer_1" xmlns="http://www.w3.org/2000/svg" xmlns:xlink="http://www.w3.org/1999/xlink" x="0px" y="0px"
	 width="38.352px" height="39.297px" viewBox="0 0 38.352 39.297" enable-background="new 0 0 38.352 39.297" xml:space="preserve">
<g transform="translate(0 7.499)">
	<path d="M23.601,16.325v-2.973c-0.005-4.238-2.777-7.976-6.832-9.211V2.795c0.029-1.543-1.198-2.818-2.741-2.847
		c-1.544-0.029-2.818,1.198-2.848,2.742c-0.001,0.035-0.001,0.07,0,0.105v1.346c-4.055,1.235-6.826,4.974-6.832,9.211v2.973
		C4.356,20.118,2.89,23.767,0.259,26.5c-0.355,0.372-0.343,0.962,0.029,1.317c0.174,0.166,0.403,0.258,0.643,0.259h8.479
		c0.514,2.521,2.974,4.147,5.495,3.633c1.829-0.374,3.259-1.804,3.633-3.633h8.478c0.515-0.001,0.932-0.419,0.931-0.935
		c-0.001-0.238-0.093-0.469-0.259-0.642C25.057,23.767,23.592,20.118,23.601,16.325z M13.042,2.795
		c0.017-0.515,0.447-0.918,0.962-0.901c0.49,0.016,0.885,0.41,0.9,0.901v0.977c-0.307-0.03-0.616-0.045-0.932-0.045
		c-0.314,0-0.625,0.016-0.932,0.045L13.042,2.795z M13.974,29.935c-1.184-0.002-2.238-0.748-2.634-1.863h5.269
		C16.213,29.188,15.157,29.934,13.974,29.935z M2.939,26.208c2.131-2.854,3.278-6.322,3.271-9.883v-2.973
		c0-4.287,3.476-7.763,7.763-7.763s7.763,3.476,7.763,7.763v2.973c-0.007,3.561,1.142,7.029,3.271,9.883H2.939z"/>
	<path d="M26.084,13.353c-0.017,0.515,0.387,0.945,0.9,0.963c0.515,0.016,0.945-0.387,0.962-0.901c0.001-0.021,0.001-0.041,0-0.062
		c0.011-3.708-1.463-7.266-4.093-9.88c-0.349-0.378-0.938-0.402-1.316-0.053c-0.379,0.349-0.402,0.938-0.053,1.317
		c0.017,0.018,0.034,0.036,0.053,0.053C24.816,7.055,26.093,10.139,26.084,13.353z"/>
	<path d="M0.932,14.284c0.515,0,0.933-0.418,0.933-0.932C1.856,10.139,3.132,7.057,5.41,4.791c0.349-0.378,0.325-0.968-0.053-1.317
		c-0.357-0.33-0.907-0.33-1.265,0C1.464,6.088-0.01,9.645,0,13.353C0,13.866,0.417,14.284,0.932,14.284z"/>
</g>
</svg>
