<svg xmlns="http://www.w3.org/2000/svg" width="32.125" height="32.125" viewBox="0 0 32.125 32.125"><defs><style>.a{fill:#fff;}</style></defs><path class="a" d="M28.912,3.212H27.306V1.606a1.606,1.606,0,1,0-3.212,0V3.212H8.031V1.606A1.518,1.518,0,0,0,6.425,0,1.518,1.518,0,0,0,4.819,1.606V3.212H1.606A1.61,1.61,0,0,0,0,4.819V27.306a1.61,1.61,0,0,0,1.606,1.606h9.8A12.786,12.786,0,0,1,30.519,12.529V4.819A1.727,1.727,0,0,0,28.912,3.212Z"/><g transform="translate(12.85 12.85)"><path class="a" d="M214.437,204.8a9.637,9.637,0,1,0,9.638,9.637A9.666,9.666,0,0,0,214.437,204.8Zm3.212,11.244h-3.212a1.518,1.518,0,0,1-1.606-1.606v-4.819a1.606,1.606,0,0,1,3.212,0v3.213h1.606a1.606,1.606,0,1,1,0,3.212Z" transform="translate(-204.8 -204.8)"/></g></svg>