<svg xmlns="http://www.w3.org/2000/svg" width="26.076" height="38.632" viewBox="0 0 26.076 38.632"><defs><style>.a{fill:#fff;}</style></defs><path class="a" d="M-1945.7,59.484h-7.086a21.956,21.956,0,0,1-4.868-1.378,22.13,22.13,0,0,1-4.344-2.4v-.671a6.644,6.644,0,0,1,5.841-6.6l.038,0a.321.321,0,0,1,.318.323v3.282a.647.647,0,0,1-.374.584,2.425,2.425,0,0,0-1.4,2.189,2.417,2.417,0,0,0,2.414,2.414c.054,0,.108,0,.162-.005a2.411,2.411,0,0,0,2.25-2.283,2.408,2.408,0,0,0-1.4-2.318.641.641,0,0,1-.368-.581V48.388a.184.184,0,0,1,.187-.185.181.181,0,0,1,.111.037c1.248.951,2.183,1.667,2.866,2.191,2.031,1.556,2.153,1.649,2.319,1.649h.136c.168,0,.3-.1,2.451-1.749l.027-.021c.7-.533,1.563-1.2,2.709-2.071a.181.181,0,0,1,.111-.038.188.188,0,0,1,.188.186v2.773a.64.64,0,0,1-.439.61,3.456,3.456,0,0,0-2.378,3.287v2.977a.645.645,0,0,0,.645.644h.042a.657.657,0,0,0,.6-.665V55.057a2.176,2.176,0,0,1,2.173-2.173h.065a2.134,2.134,0,0,1,1.5.679,2.237,2.237,0,0,1,.61,1.539V58a21.953,21.953,0,0,1-5.111,1.481Zm6.4-2.08h0V55.057a3.456,3.456,0,0,0-2.378-3.287.64.64,0,0,1-.439-.61v-2.39a.321.321,0,0,1,.318-.322l.042,0a6.787,6.787,0,0,1,4.148,2.169,6.53,6.53,0,0,1,1.689,4.386v.286A22.216,22.216,0,0,1-1939.3,57.4Zm-15.855-1.461a1.128,1.128,0,0,1-1.127-1.127,1.128,1.128,0,0,1,1.127-1.127,1.128,1.128,0,0,1,1.126,1.127A1.128,1.128,0,0,1-1955.159,55.943Zm6.2-5.483a.638.638,0,0,1-.39-.132l-3.436-2.619a.378.378,0,0,1-.133-.431.375.375,0,0,1,.354-.266.422.422,0,0,1,.148.028,9.71,9.71,0,0,0,3.42.622,10.336,10.336,0,0,0,3.5-.626.4.4,0,0,1,.136-.025.382.382,0,0,1,.354.269.376.376,0,0,1-.133.43l-3.435,2.618A.639.639,0,0,1-1948.962,50.46Zm0-4.086a8.56,8.56,0,0,1-6.042-2.48,8.559,8.559,0,0,1-2.569-6c0-.016,0-3.789,0-5.028v-.33a4.512,4.512,0,0,1,4.507-4.507h8.21a4.512,4.512,0,0,1,4.507,4.507v5.29a8.559,8.559,0,0,1-2.547,6.041A8.556,8.556,0,0,1-1948.961,46.374Zm-10.266-10.384a.339.339,0,0,1-.355-.338v-.01c0-.031,0-.031,0-2.836,0-1.159,0-2.8,0-5.113a2.814,2.814,0,0,1,.685-1.839,2.821,2.821,0,0,1,1.695-.944,7.019,7.019,0,0,1,2.588-2.958,7.041,7.041,0,0,1,3.793-1.1h5.441a7,7,0,0,1,4.982,2.063,7,7,0,0,1,2.063,4.982v4.21c0,3.5,0,3.5,0,3.535v.011a.339.339,0,0,1-.355.338.38.38,0,0,1-.252-.091.347.347,0,0,1-.115-.27V32.541a5.8,5.8,0,0,0-5.795-5.795h-8.21a5.8,5.8,0,0,0-5.795,5.795v3.088A.353.353,0,0,1-1959.228,35.99Z" transform="translate(1962 -20.852)"/></svg>