<svg xmlns="http://www.w3.org/2000/svg" width="36.099" height="36.099" viewBox="0 0 36.099 36.099"><defs><style>.a{fill:#fff;}</style></defs><path class="a" d="M210.85,0H197.257A4.453,4.453,0,0,0,192.8,4.456v20.39a1.058,1.058,0,0,0,1.692.846l4.249-3.187H210.85a4.453,4.453,0,0,0,4.456-4.456V4.455A4.453,4.453,0,0,0,210.85,0ZM203,16.841h-4.606a1.058,1.058,0,1,1,0-2.115H203a1.058,1.058,0,1,1,0,2.115Zm6.722-4.531H198.389a1.058,1.058,0,1,1,0-2.115h11.328a1.058,1.058,0,0,1,0,2.115Zm0-4.531H198.389a1.058,1.058,0,1,1,0-2.115h11.328a1.058,1.058,0,0,1,0,2.115Zm0,0" transform="translate(-179.207 0)"/><path class="a" d="M34.424,245.987a5,5,0,1,1-5-5A5,5,0,0,1,34.424,245.987Zm0,0" transform="translate(-22.703 -223.997)"/><path class="a" d="M6.721,382.8A6.722,6.722,0,0,0,0,389.526v1.33a1.058,1.058,0,0,0,1.058,1.058H12.385a1.058,1.058,0,0,0,1.058-1.058v-1.33A6.722,6.722,0,0,0,6.721,382.8Zm0,0" transform="translate(0 -355.815)"/></svg>