<svg xmlns="http://www.w3.org/2000/svg" width="45.099" height="46.977" viewBox="0 0 45.099 46.977"><defs><style>.a{fill:#fff;}.b{fill:#02aed2;}</style></defs><g transform="translate(-401.496 -16.71)"><path class="a" d="M446.6,22.715a5.623,5.623,0,1,0-6.462,5.56V54.107a7.151,7.151,0,0,1-3.453,6.021,14.127,14.127,0,0,1-7.767,2.026,13.392,13.392,0,0,1-7.409-2.132,6.871,6.871,0,0,1-3.112-5.9V50.154l10.159-12.44c4.432-5.427,6.049-11.562,4.119-15.63-1.289-2.716-3.974-4.211-7.562-4.211a1.037,1.037,0,1,0,0,2.074c2.782,0,4.749,1.047,5.689,3.027,1.588,3.348.076,8.62-3.852,13.43l-9.46,11.584L408.025,36.4c-3.929-4.81-5.44-10.082-3.852-13.43.94-1.98,2.907-3.027,5.689-3.027a1.037,1.037,0,0,0,0-2.074c-3.588,0-6.274,1.5-7.562,4.211-1.93,4.068-.313,10.2,4.119,15.63l10.159,12.44v3.952c-.091,6.659,6.318,9.78,12.311,9.862l.259,0a15.7,15.7,0,0,0,8.526-2.324,8.854,8.854,0,0,0,4.274-7.527V28.251A5.623,5.623,0,0,0,446.6,22.715Zm-5.623-.467a.467.467,0,1,1-.466.467A.466.466,0,0,1,440.972,22.248Z" transform="translate(0 -0.283)"/><path class="b" d="M421.647,18.669a1.959,1.959,0,1,1-1.959-1.959A1.96,1.96,0,0,1,421.647,18.669Zm11.066,0a1.959,1.959,0,1,0,1.959-1.959A1.96,1.96,0,0,0,432.713,18.669Zm6.205,16.3a2.332,2.332,0,0,0-3.282.332L427.18,45.655,418.723,35.3a2.333,2.333,0,1,0-3.614,2.951l10.254,12.556a2.317,2.317,0,0,0,.179.2c.025.024.051.046.077.069s.055.052.084.076l.025.019c.025.02.051.038.077.057s.08.057.12.082c.026.017.051.033.078.048.05.029.1.056.152.081l.052.026a2.228,2.228,0,0,0,.219.087l.031.01q.1.031.194.054l.059.012c.059.012.118.022.178.029l.058.007c.077.008.153.012.23.012h0c.077,0,.154,0,.23-.012l.058-.007c.06-.008.119-.017.179-.029l.059-.012c.066-.015.131-.033.2-.054l.03-.009q.112-.038.219-.088l.05-.025c.052-.025.1-.052.154-.082l.077-.047c.041-.026.081-.054.121-.083s.051-.037.076-.057l.025-.019c.03-.024.057-.051.085-.077s.052-.045.076-.069a2.318,2.318,0,0,0,.179-.2L439.25,38.251A2.332,2.332,0,0,0,438.918,34.969Zm16.037-12.538a4.288,4.288,0,1,1-4.287-4.288A4.293,4.293,0,0,1,454.955,22.432Zm-.81,0a3.478,3.478,0,1,0-3.478,3.478A3.482,3.482,0,0,0,454.145,22.432ZM453.851,48.6V34.532a3.11,3.11,0,0,0-6.221,0V48.6a3.11,3.11,0,0,0,6.221,0Z" transform="translate(-9.695 0)"/></g></svg>