<svg xmlns="http://www.w3.org/2000/svg" width="26.443" height="35.988" viewBox="0 0 26.443 35.988"><defs><style>.a{fill:#fff;}</style></defs><g transform="translate(0.001)"><path class="a" d="M2.367,97.747H24.075a2.3,2.3,0,0,0,2.367-2.2V69.213A2.309,2.309,0,0,0,24.075,67H20.5v2.011a.64.64,0,0,1-.619.649H6.521a.671.671,0,0,1-.655-.649V67h-3.5A2.309,2.309,0,0,0,0,69.213V95.544a2.3,2.3,0,0,0,2.367,2.2ZM7.2,77.562a.626.626,0,0,1,.626-.626H11.03V73.729a.626.626,0,0,1,.626-.626h3.129a.626.626,0,0,1,.626.626v3.208h3.208a.626.626,0,0,1,.626.626v3.129a.626.626,0,0,1-.626.626H15.412v3.208a.626.626,0,0,1-.626.626H11.656a.626.626,0,0,1-.626-.626V81.317H7.823a.626.626,0,0,1-.626-.626Zm.255,10.8H18.99a.626.626,0,0,1,0,1.252H7.452a.626.626,0,0,1,0-1.252ZM5.1,91.488H21.337a.626.626,0,1,1,0,1.252H5.1a.626.626,0,1,1,0-1.252Zm0,0" transform="translate(0 -61.759)"/><path class="a" d="M103.126,2.425H100.2a.626.626,0,0,1-.612-.494A2.549,2.549,0,0,0,97.06,0h-.008a2.6,2.6,0,0,0-2.524,1.955.627.627,0,0,1-.606.47H91V6.65h12.126Zm0,0" transform="translate(-83.881 0)"/><path class="a" d="M111.833,167.337v3.208h1.878v-3.208a.626.626,0,0,1,.626-.626h3.208v-1.878h-3.208a.626.626,0,0,1-.626-.626V161h-1.878v3.208a.626.626,0,0,1-.626.626H108v1.878h3.208A.626.626,0,0,1,111.833,167.337Zm0,0" transform="translate(-99.551 -148.404)"/></g></svg>