<svg xmlns="http://www.w3.org/2000/svg" width="30.239" height="35" viewBox="0 0 30.239 35"><defs><style>.a{fill:#fff;}</style></defs><g transform="translate(-34.007)"><g transform="translate(42.049)"><path class="a" d="M159.382,0A7.086,7.086,0,0,0,152.3,7.079v3.667a7.078,7.078,0,1,0,14.155,0V7.079A7.086,7.086,0,0,0,159.382,0Z" transform="translate(-152.304 0)"/></g><g transform="translate(34.007 17.75)"><g transform="translate(0)"><path class="a" d="M64.208,269.971a17.461,17.461,0,0,0-9.856-8.063.266.266,0,0,0-.273.069,28.653,28.653,0,0,1-4.948,3.893,35.66,35.66,0,0,1-4.958-3.893.266.266,0,0,0-.273-.069,17.457,17.457,0,0,0-9.855,8.063.292.292,0,0,0,0,.287,17.24,17.24,0,0,0,30.164,0A.291.291,0,0,0,64.208,269.971Zm-5.781,2.111a.29.29,0,0,1-.294.276H56.281a.323.323,0,0,0-.316.291v1.982c0,.156-.081.275-.232.275H54.07a.289.289,0,0,1-.293-.275v-1.982a.271.271,0,0,0-.255-.291H51.591a.274.274,0,0,1-.276-.276v-1.707a.28.28,0,0,1,.276-.282h1.932a.264.264,0,0,0,.254-.284v-1.985a.292.292,0,0,1,.293-.279h1.646a.257.257,0,0,1,.25.279v1.991a.3.3,0,0,0,.3.278h1.871a.3.3,0,0,1,.294.288Z" transform="translate(-34.007 -261.896)"/></g></g></g></svg>