<svg xmlns="http://www.w3.org/2000/svg" width="35" height="35" viewBox="0 0 35 35"><defs><style>.a{fill:#fff;}</style></defs><path class="a" d="M213.081,151v2.273a3.114,3.114,0,0,0,1.04,6.051,1.04,1.04,0,1,1-1.04,1.04H211a3.116,3.116,0,0,0,2.081,2.93v2.273h2.081v-2.273a3.114,3.114,0,0,0-1.04-6.051,1.04,1.04,0,1,1,1.04-1.04h2.081a3.116,3.116,0,0,0-2.081-2.93V151Z" transform="translate(-196.621 -140.783)"/><path class="a" d="M271,0V8.5a9.329,9.329,0,0,1,8.225,8.219h8.492A17.889,17.889,0,0,0,271,0Z" transform="translate(-252.717)"/><path class="a" d="M10.474,23.57A9.268,9.268,0,0,1,16.717,8.5V0A17.846,17.846,0,0,0,0,17.757,17.659,17.659,0,0,0,4.55,29.494Z" transform="translate(0 0)"/><path class="a" d="M116.293,271h-8.5a9.268,9.268,0,0,1-15.071,6.243L86.8,283.167a17.659,17.659,0,0,0,11.736,4.55A17.844,17.844,0,0,0,116.293,271Z" transform="translate(-81.295 -252.717)"/></svg>