<svg xmlns="http://www.w3.org/2000/svg" width="29.753" height="32.836" viewBox="0 0 29.753 32.836"><defs><style>.a{fill:#fff;}</style></defs><g transform="translate(0)"><path class="a" d="M203.478,17.681a2.359,2.359,0,0,0,1.743-.75,2.451,2.451,0,0,0,.736-1.776V2.526A2.449,2.449,0,0,0,205.221.75a2.4,2.4,0,0,0-3.487,0A2.449,2.449,0,0,0,201,2.526V15.155a2.45,2.45,0,0,0,.736,1.776A2.36,2.36,0,0,0,203.478,17.681Z" transform="translate(-188.601)"/><path class="a" d="M46.469,79.152a14.8,14.8,0,0,0-4.387-5.328,2.373,2.373,0,0,0-1.84-.493,2.289,2.289,0,0,0-1.627.987,2.435,2.435,0,0,0-.475,1.865,2.465,2.465,0,0,0,.959,1.668,10.184,10.184,0,0,1,3.186,11.988,10.19,10.19,0,0,1-2.121,3.226A9.986,9.986,0,0,1,37,95.224a9.643,9.643,0,0,1-7.69,0,9.988,9.988,0,0,1-3.167-2.161,10.2,10.2,0,0,1-2.121-3.226A10.144,10.144,0,0,1,27.2,77.849a2.468,2.468,0,0,0,.959-1.668,2.435,2.435,0,0,0-.475-1.865,2.283,2.283,0,0,0-1.617-.987,2.416,2.416,0,0,0-1.85.493,14.8,14.8,0,0,0-4.388,5.328,15.159,15.159,0,0,0-1.559,6.768A14.984,14.984,0,0,0,19.457,91.8a15.312,15.312,0,0,0,3.177,4.835,14.98,14.98,0,0,0,4.746,3.236,14.435,14.435,0,0,0,11.545,0,14.988,14.988,0,0,0,4.746-3.236A15.31,15.31,0,0,0,46.846,91.8a14.983,14.983,0,0,0,1.181-5.881A15.157,15.157,0,0,0,46.469,79.152Z" transform="translate(-18.275 -68.239)"/></g></svg>