<svg xmlns="http://www.w3.org/2000/svg" width="29.753" height="27.784" viewBox="0 0 29.753 27.784"><defs><style>.a{fill:#fff;}</style></defs><path class="a" d="M253.394,42.668H241.387a8.877,8.877,0,0,1,0,7.577h12.007a3.665,3.665,0,0,0,2.633-1.106,3.8,3.8,0,0,0,1.086-2.682A3.759,3.759,0,0,0,253.394,42.668Zm0,0" transform="translate(-227.36 -40.142)"/><path class="a" d="M12.4,6.315a6.257,6.257,0,0,1-6.2,6.314A6.257,6.257,0,0,1,0,6.315,6.258,6.258,0,0,1,6.2,0,6.257,6.257,0,0,1,12.4,6.315Zm0,0"/><path class="a" d="M14.877,302.457a8.9,8.9,0,0,1,.849-3.789H3.719A3.759,3.759,0,0,0,0,302.457a3.8,3.8,0,0,0,1.086,2.682,3.665,3.665,0,0,0,2.633,1.106H15.726A8.9,8.9,0,0,1,14.877,302.457Zm0,0" transform="translate(0 -280.987)"/><path class="a" d="M311.065,262.315a6.2,6.2,0,1,1-6.2-6.315A6.257,6.257,0,0,1,311.065,262.315Zm0,0" transform="translate(-281.312 -240.845)"/></svg>